<svg xmlns="http://www.w3.org/2000/svg" width="32" height="30" fill="none" viewBox="0 0 32 30"><path fill="url(#paint0_linear_12_337)" d="M0 4C0 1.79086 1.79086 0 4 0H20C23.3137 0 26 2.68629 26 6V26C26 28.2091 24.2091 30 22 30H4C1.79086 30 0 28.2091 0 26V4Z"/><path fill="url(#paint1_linear_12_337)" d="M20 0V0C23.3137 0 26 2.68629 26 6V6H20V0Z"/><path fill="#fff" d="M6 19.5L13 15.5L20 19.5L13 23.5L6 19.5Z" opacity=".2"/><path fill="#fff" d="M6 16L13 12L20 16L13 20L6 16Z" opacity=".2"/><path fill="#fff" d="M6 12L13 8L20 12L13 16L6 12Z"/><g filter="url(#filter0_b_12_337)"><rect width="14" height="10" x="18" y="16" fill="#FFBFBB" fill-opacity=".44" rx="2"/></g><g filter="url(#filter1_b_12_337)"><rect width="13.8" height="9.8" x="18.1" y="16.1" stroke="url(#paint2_linear_12_337)" stroke-width=".2" rx="1.9"/></g><path stroke="#EA501F" d="M28 20V18H26M28 22V24H26M24 18H22V20M22 22V24H24"/><rect width="2" height="2" x="24" y="20" fill="#EA501F" rx="1"/><defs><filter id="filter0_b_12_337" width="22" height="18" x="14" y="12" color-interpolation-filters="sRGB" filterUnits="userSpaceOnUse"><feFlood flood-opacity="0" result="BackgroundImageFix"/><feGaussianBlur in="BackgroundImage" stdDeviation="2"/><feComposite in2="SourceAlpha" operator="in" result="effect1_backgroundBlur_12_337"/><feBlend in="SourceGraphic" in2="effect1_backgroundBlur_12_337" mode="normal" result="shape"/></filter><filter id="filter1_b_12_337" width="30" height="26" x="10" y="8" color-interpolation-filters="sRGB" filterUnits="userSpaceOnUse"><feFlood flood-opacity="0" result="BackgroundImageFix"/><feGaussianBlur in="BackgroundImage" stdDeviation="4"/><feComposite in2="SourceAlpha" operator="in" result="effect1_backgroundBlur_12_337"/><feBlend in="SourceGraphic" in2="effect1_backgroundBlur_12_337" mode="normal" result="shape"/></filter><linearGradient id="paint0_linear_12_337" x1="23" x2="2.282" y1="28.125" y2="-.359" gradientUnits="userSpaceOnUse"><stop stop-color="#E15D33"/><stop offset="1" stop-color="#FFA37B"/></linearGradient><linearGradient id="paint1_linear_12_337" x1="21.5" x2="24.777" y1="6" y2="2.164" gradientUnits="userSpaceOnUse"><stop stop-color="#E15D33"/><stop offset="1" stop-color="#FFA37B"/></linearGradient><linearGradient id="paint2_linear_12_337" x1="19" x2="32" y1="17" y2="24" gradientUnits="userSpaceOnUse"><stop stop-color="#F7F2EB" stop-opacity=".6"/><stop offset="1" stop-color="#DDCAAD" stop-opacity=".12"/></linearGradient></defs></svg>