<svg xmlns="http://www.w3.org/2000/svg" width="52" height="40" fill="none" viewBox="0 0 52 40"><rect width="52" height="40" fill="#4154B3" rx="4"/><path fill="#374BAE" d="M-6.78884e-06 3.99924C-5.28388e-06 1.79011 1.79085 0 3.99999 0H48C50.2091 0 52 1.79086 52 4V9C52 9 14 9 0 9C-6.90736e-06 7.50331 -7.9072e-06 5.6409 -6.78884e-06 3.99924Z"/><rect width="25" height="10" x="4" y="13" fill="#A3DAF8" rx="2"/><rect width="15" height="23" x="33" y="13" fill="#fff" rx="2"/><rect width="25" height="9" x="4" y="27" fill="#FDDE83" rx="2"/><circle cx="5.5" cy="4.5" r="1.5" fill="#FF78B0"/><circle cx="11.5" cy="4.5" r="1.5" fill="#FFC694"/><circle cx="17.5" cy="4.5" r="1.5" fill="#BCD0D1"/></svg>